<?xml version="1.0"?>
<svg xmlns="http://www.w3.org/2000/svg" id="Layer_1" data-name="Layer 1" viewBox="0 0 512 512" width="512" height="512"
     fill="#039BE5">
    <title>recovered heart patient</title>
    <path d="M404.566,292.931a36.319,36.319,0,0,0-29.334,14.91,36.306,36.306,0,0,0-29.343-14.934c-12.078,0-21.918,4.977-28.455,14.392-5.083,7.32-7.883,17.1-7.883,27.525,0,45.033,59.347,83.961,61.873,85.6a7,7,0,0,0,7.624-.012c2.526-1.645,61.856-40.817,61.856-85.591C440.9,314.513,428.169,292.931,404.566,292.931Zm-29.35,113.09c-12.545-9-51.665-39.618-51.665-71.2,0-4.662,1.077-27.917,22.338-27.917a22.371,22.371,0,0,1,22.338,22.356,7,7,0,1,0,14,0,22.361,22.361,0,0,1,22.339-22.332c16.274,0,22.338,17.105,22.338,27.887C426.9,366.207,387.758,396.972,375.216,406.021Z"/>
    <path d="M375.229,239.343a118.019,118.019,0,0,0-105.936,66.211c-1.082-.337-2.128-.667-3.117-.988L257.352,284.7c20.856-15.808,26.583-40.318,28.15-52.207,14.178-3.835,27.207-20.5,32.426-42.58,2.808-11.932-1.305-23.039-10.237-27.642a17.281,17.281,0,0,0-8.034-1.94c.464-3.472.947-7.721,1.448-12.944,1.167-12.179,1.912-24.48,1.912-27.6,0-13.04-4.441-32.829-16.9-49.263-20.738-27.344-53.466-33.083-77.27-33.083-23.414,0-55.951,5.354-77.991,30.859-17.352,20.08-21.124,44.6-19.427,56.185.062.419.435,2.393,1.031,5.34a7,7,0,0,0,.192,1.149c.016.06.065.241.145.507,1.526,7.435,4.13,19.4,6.821,29.3a17.672,17.672,0,0,0-6.945,2.1c-8.574,4.634-12.505,15.5-9.783,27.036,5.227,22.121,18.293,38.8,32.5,42.6,1.673,11.555,7.484,35.512,27.4,51.342l-9.413,20.29c-6.658,2.08-13.978,4.12-21.728,6.262C84.085,323.561,19,341.57,19,401.479v43.2C19,459.318,37.788,475,51.09,475H370.36c1.616.066,3.237.108,4.869.108a117.883,117.883,0,1,0,0-235.765ZM141.444,77.459c14.915-17.261,37.591-26.013,67.4-26.013,30.01,0,52.255,9.267,66.116,27.543a69.053,69.053,0,0,1,11.019,21.866A93.016,93.016,0,0,0,264.4,83.528a6.947,6.947,0,0,0-10.118,4.281c-.081.28-8.7,28.333-63.1,52.934-20.351,9.2-36.752,11.015-48.751,5.385a31.556,31.556,0,0,1-16.241-18.687l-.008-.026c-.433-2.151-.75-3.874-.909-4.955C122.787,105.476,135.094,84.807,141.444,77.459Zm7.307,148.589a7.048,7.048,0,0,0-7-6.719l-.28,0c-8.36,0-20.332-13.036-24.962-32.629-1.435-6.083.453-10.226,2.815-11.5,2.676-1.446,5.524,1.093,6.624,2.253a7,7,0,0,0,10.813-8.833c-.85-1.574-2.2-6.026-3.679-11.606,1,.583,2.044,1.14,3.139,1.663a49.639,49.639,0,0,0,21.643,4.635c11.559,0,24.629-3.274,39.088-9.813,43.133-19.507,60.478-41.645,67.089-53.508a82.168,82.168,0,0,1,9.028,7.651c9.813,9.655,14.806,19.737,14.85,29.968-1.037,12.655-2.639,27.669-4.066,31.314a7,7,0,0,0,11.192,8.336c1.3-1.48,3.834-3.775,6.233-2.541,2.59,1.334,4.459,5.881,3.022,11.981-4.658,19.713-16.744,32.774-25.109,32.63a7.005,7.005,0,0,0-7.132,6.8c-.3,5.761-3.034,35.248-27.093,50.12-9.333,5.764-20.961,8.686-34.561,8.686-13.553,0-25.151-2.986-34.475-8.878C152.3,261.141,149.144,231.781,148.751,226.048Zm16.034,86.782,9.949-21.449c10.293,5.013,22.254,7.555,35.672,7.555,13.065,0,24.745-2.351,34.843-6.993l9.392,21.141a7,7,0,0,0,4.161,3.792c1.594.537,3.273,1.084,5.077,1.653q-1.68,4.82-2.948,9.819c-7.609,13.887-25.219,29.773-50.525,29.773-33.019,0-49.744-25.925-53.105-40.532,1.115-.347,2.218-.7,3.3-1.048A7,7,0,0,0,164.785,312.83ZM51.09,461C44.455,461,33,450.628,33,444.679v-43.2c0-21.887,10.315-38.322,32.582-51.721,20.154-12.128,46.5-19.419,69.77-25.853,2.9-.8,5.72-1.587,8.5-2.368,5.245,21.294,27.871,50.584,66.559,50.584a70.886,70.886,0,0,0,46.973-17.672c-.022.923-.037,1.848-.037,2.777a117.984,117.984,0,0,0,62,103.774Zm324.139.108-.167,0a6.985,6.985,0,0,0-1.175-.106H370.6a103.778,103.778,0,1,1,4.628.108Z"/>
</svg>
