<?xml version="1.0" encoding="iso-8859-1"?>
<!-- Generator: Adobe Illustrator 19.0.0, SVG Export Plug-In . SVG Version: 6.00 Build 0)  -->
<svg version="1.1" id="Layer_1" xmlns="http://www.w3.org/2000/svg" x="0px" y="0px"
     viewBox="0 0 512 512" style="enable-background:new 0 0 512 512;" xml:space="preserve" fill="orange">
<g>
	<g>
		<path d="M180.033,198.373c-18.581,0-33.698,15.117-33.698,33.698c0,18.581,15.117,33.698,33.698,33.698
			s33.698-15.117,33.698-33.698S198.614,198.373,180.033,198.373z M180.033,248.92c-9.29,0-16.849-7.557-16.849-16.849
			c0-9.29,7.558-16.849,16.849-16.849s16.849,7.558,16.849,16.849C196.882,241.361,189.324,248.92,180.033,248.92z"/>
	</g>
</g>
    <g>
	<g>
		<path d="M322.32,198.373c-18.581,0-33.698,15.117-33.698,33.698c0,18.581,15.117,33.698,33.698,33.698
			s33.698-15.117,33.698-33.698S340.901,198.373,322.32,198.373z M322.32,248.92c-9.29,0-16.849-7.557-16.849-16.849
			c0-9.29,7.558-16.849,16.849-16.849s16.849,7.558,16.849,16.849C339.169,241.361,331.61,248.92,322.32,248.92z"/>
	</g>
</g>
    <g>
	<g>
		<path d="M511.977,197.558c-0.371-11.604-5.238-22.371-13.705-30.313c-8.467-7.944-19.516-12.117-31.125-11.745
			c-11.604,0.37-22.371,5.237-30.37,13.765L419.823,187.7c-7.265-21.564-18.007-42.069-31.667-60.362
			c16.002-7.06,27.204-23.068,27.204-41.651c0-25.092-20.414-45.507-45.507-45.507H69.958c-25.092,0-45.507,20.415-45.507,45.507
			c0,25.093,20.414,45.508,45.507,45.508h299.834c16.896,20.825,29.558,45.16,36.85,70.834l-92.697,100.788
			c-1.072,1.165-1.793,2.607-2.083,4.162l-6.461,34.733c-0.024,0.125-0.044,0.249-0.061,0.374l-1.966,14.053
			c-13.378-3.98-28.962-6.159-45.432-6.159c-29.978,0-58.917,8.002-75.519,20.883c-3.676,2.852-4.345,8.144-1.493,11.82
			c1.66,2.14,4.148,3.26,6.662,3.26c1.804,0,3.622-0.577,5.158-1.768c13.792-10.699,38.772-17.346,65.192-17.346
			c18.214,0,35.34,2.972,48.466,8.131c0.481,0.25,0.984,0.454,1.503,0.608c5.759,2.394,10.691,5.222,14.519,8.419
			c3.571,2.982,8.884,2.504,11.866-1.067c2.454-2.94,2.56-7.054,0.531-10.082l2.246-0.289c0.245-0.031,0.489-0.074,0.73-0.127
			l35.254-7.72c1.69-0.37,3.227-1.252,4.399-2.526l16.059-17.461c-32.957,66.516-101.301,110.258-178.013,110.258
			c-109.539-0.001-198.656-89.118-198.656-198.658c0-16.941,2.134-33.764,6.343-50c1.167-4.504-1.538-9.102-6.041-10.269
			c-4.504-1.17-9.102,1.535-10.269,6.041C2.316,219.705,0,237.95,0,256.315c0,118.83,96.675,215.506,215.506,215.506
			c97.901,0,183.23-65.692,208.28-160.016l76.447-83.121C508.178,220.217,512.348,209.162,511.977,197.558z M69.958,114.345
			c-15.802,0-28.657-12.858-28.657-28.66s12.856-28.659,28.659-28.659h299.893c15.802,0,28.659,12.856,28.659,28.659
			c0,15.803-12.856,28.66-28.659,28.66H69.958z M487.888,217.217L366.858,348.81l-32.293,7.072l-1.698,0.218l134.778-143.661
			c3.183-3.393,3.014-8.725-0.38-11.909s-8.725-3.015-11.908,0.38l-132.993,141.76l5.623-30.23l94.186-102.406
			c0.064-0.07,0.129-0.137,0.191-0.208l26.758-29.093c4.865-5.185,11.457-8.166,18.563-8.393c7.119-0.219,13.875,2.327,19.06,7.192
			s8.166,11.457,8.393,18.563C495.365,205.201,492.81,211.97,487.888,217.217z"/>
	</g>
</g>
    <g>
	<g>
		<circle cx="25.302" cy="174.07" r="8.424"/>
	</g>
</g>
    <g>
</g>
    <g>
</g>
    <g>
</g>
    <g>
</g>
    <g>
</g>
    <g>
</g>
    <g>
</g>
    <g>
</g>
    <g>
</g>
    <g>
</g>
    <g>
</g>
    <g>
</g>
    <g>
</g>
    <g>
</g>
    <g>
</g>
</svg>
